<svg id="svg" xmlns="http://www.w3.org/2000/svg" xmlns:xlink="http://www.w3.org/1999/xlink" width="400" height="429.75206611570246" viewBox="0, 0, 400,429.75206611570246"><g id="svgg"><path id="path0" d="M0.000 214.800 L 0.000 429.600 200.000 429.600 L 400.000 429.600 400.000 214.800 L 400.000 0.000 200.000 0.000 L 0.000 0.000 0.000 214.800 M311.400 36.176 C 327.380 38.326,338.209 48.859,340.620 64.600 C 341.472 70.158,341.462 340.552,340.610 345.800 C 339.245 354.209,335.574 361.071,330.066 365.504 C 329.044 366.327,327.851 367.321,327.415 367.713 C 325.852 369.118,320.632 371.698,317.247 372.739 L 313.800 373.800 172.000 373.800 L 30.200 373.800 26.503 372.672 C 16.580 369.645,7.430 361.034,4.698 352.151 C 4.368 351.078,3.851 349.390,3.549 348.400 C 2.616 345.340,2.742 64.237,3.678 61.200 C 4.051 59.990,4.560 58.308,4.808 57.461 C 5.846 53.923,10.577 46.995,13.472 44.775 C 14.172 44.239,15.702 43.056,16.872 42.146 C 21.203 38.779,25.411 37.106,31.800 36.212 C 37.291 35.444,305.699 35.409,311.400 36.176 M96.000 132.431 C 93.910 132.608,91.300 132.939,90.200 133.168 C 83.049 134.650,81.622 134.973,80.086 135.458 C 79.143 135.756,78.106 136.000,77.781 136.000 C 77.455 136.000,76.877 136.170,76.495 136.379 C 76.113 136.587,74.741 137.134,73.446 137.593 C 62.010 141.654,49.929 150.682,44.677 159.095 C 41.021 164.950,39.416 169.089,38.196 175.800 C 37.350 180.455,37.344 229.484,38.189 234.200 C 38.915 238.257,39.714 241.448,40.100 241.834 C 40.265 241.998,40.400 242.368,40.400 242.656 C 40.400 249.229,55.904 265.877,66.200 270.358 C 66.640 270.550,68.408 271.358,70.129 272.153 C 71.850 272.949,73.428 273.600,73.635 273.600 C 73.842 273.600,74.323 273.767,74.705 273.971 C 82.005 277.872,109.440 280.193,122.600 278.024 C 129.059 276.959,135.749 275.660,137.200 275.189 C 137.750 275.010,139.280 274.556,140.600 274.180 C 143.401 273.381,148.248 271.747,149.400 271.213 C 149.840 271.009,151.640 270.264,153.400 269.556 C 156.270 268.403,163.915 264.618,167.600 262.526 L 169.000 261.731 169.000 231.766 L 169.000 201.800 137.944 201.698 C 113.306 201.616,106.850 201.699,106.707 202.098 C 106.608 202.374,106.611 205.793,106.714 209.697 L 106.901 216.793 128.550 216.897 L 150.200 217.000 150.304 234.248 C 150.386 247.748,150.299 251.580,149.904 251.887 C 148.856 252.701,141.994 256.000,141.349 256.000 C 141.223 256.000,140.464 256.288,139.660 256.641 C 137.178 257.730,136.686 257.912,133.800 258.811 C 121.662 262.589,99.468 264.061,91.413 261.622 C 90.746 261.420,89.390 261.041,88.400 260.780 C 70.165 255.974,59.577 245.804,56.427 230.069 C 55.734 226.611,55.869 183.817,56.585 179.800 C 61.000 155.034,92.515 142.531,129.800 150.754 C 137.926 152.546,148.179 156.568,154.224 160.336 C 156.478 161.740,156.512 161.725,158.231 158.600 C 158.836 157.500,159.633 156.060,160.001 155.400 C 160.368 154.740,161.263 153.120,161.988 151.800 C 162.713 150.480,163.482 149.177,163.698 148.905 C 165.021 147.233,154.344 141.230,144.259 137.977 C 142.246 137.327,140.051 136.618,139.379 136.401 C 137.726 135.865,132.625 134.806,123.800 133.165 C 118.151 132.115,104.121 131.745,96.000 132.431 " stroke="none" fill="#ffffff" fill-rule="evenodd"></path><path id="path1" d="M31.800 36.212 C 25.411 37.106,21.203 38.779,16.872 42.146 C 15.702 43.056,14.172 44.239,13.472 44.775 C 10.577 46.995,5.846 53.923,4.808 57.461 C 4.560 58.308,4.051 59.990,3.678 61.200 C 2.742 64.237,2.616 345.340,3.549 348.400 C 3.851 349.390,4.368 351.078,4.698 352.151 C 7.430 361.034,16.580 369.645,26.503 372.672 L 30.200 373.800 172.000 373.800 L 313.800 373.800 317.247 372.739 C 320.632 371.698,325.852 369.118,327.415 367.713 C 327.851 367.321,329.044 366.327,330.066 365.504 C 335.574 361.071,339.245 354.209,340.610 345.800 C 341.462 340.552,341.472 70.158,340.620 64.600 C 338.209 48.859,327.380 38.326,311.400 36.176 C 305.699 35.409,37.291 35.444,31.800 36.212 M116.420 132.397 C 119.379 132.615,122.700 132.961,123.800 133.165 C 132.625 134.806,137.726 135.865,139.379 136.401 C 140.051 136.618,142.246 137.327,144.259 137.977 C 154.344 141.230,165.021 147.233,163.698 148.905 C 163.482 149.177,162.713 150.480,161.988 151.800 C 161.263 153.120,160.368 154.740,160.001 155.400 C 159.633 156.060,158.836 157.500,158.231 158.600 C 156.512 161.725,156.478 161.740,154.224 160.336 C 148.179 156.568,137.926 152.546,129.800 150.754 C 92.515 142.531,61.000 155.034,56.585 179.800 C 55.869 183.817,55.734 226.611,56.427 230.069 C 59.577 245.804,70.165 255.974,88.400 260.780 C 89.390 261.041,90.746 261.420,91.413 261.622 C 99.468 264.061,121.662 262.589,133.800 258.811 C 136.686 257.912,137.178 257.730,139.660 256.641 C 140.464 256.288,141.223 256.000,141.349 256.000 C 141.994 256.000,148.856 252.701,149.904 251.887 C 150.299 251.580,150.386 247.748,150.304 234.248 L 150.200 217.000 128.550 216.897 L 106.901 216.793 106.714 209.697 C 106.611 205.793,106.608 202.374,106.707 202.098 C 106.850 201.699,113.306 201.616,137.944 201.698 L 169.000 201.800 169.000 231.766 L 169.000 261.731 167.600 262.526 C 163.915 264.618,156.270 268.403,153.400 269.556 C 151.640 270.264,149.840 271.009,149.400 271.213 C 148.248 271.747,143.401 273.381,140.600 274.180 C 139.280 274.556,137.750 275.010,137.200 275.189 C 135.749 275.660,129.059 276.959,122.600 278.024 C 109.440 280.193,82.005 277.872,74.705 273.971 C 74.323 273.767,73.842 273.600,73.635 273.600 C 73.428 273.600,71.850 272.949,70.129 272.153 C 68.408 271.358,66.640 270.550,66.200 270.358 C 55.904 265.877,40.400 249.229,40.400 242.656 C 40.400 242.368,40.265 241.998,40.100 241.834 C 39.714 241.448,38.915 238.257,38.189 234.200 C 37.344 229.484,37.350 180.455,38.196 175.800 C 41.348 158.453,54.333 144.379,73.446 137.593 C 74.741 137.134,76.113 136.587,76.495 136.379 C 76.877 136.170,77.455 136.000,77.781 136.000 C 78.106 136.000,79.143 135.756,80.086 135.458 C 81.622 134.973,83.049 134.650,90.200 133.168 C 95.373 132.095,107.496 131.739,116.420 132.397 M263.000 132.612 C 274.162 133.872,277.111 134.479,284.800 137.103 C 288.595 138.397,296.119 141.719,296.800 142.400 C 296.910 142.510,297.630 142.947,298.400 143.370 C 303.322 146.077,303.382 146.188,301.654 149.322 C 301.024 150.465,298.482 155.405,296.005 160.300 C 293.527 165.195,291.343 169.200,291.151 169.200 C 290.958 169.200,289.586 168.588,288.100 167.840 C 278.197 162.853,269.434 160.606,255.991 159.607 C 234.954 158.044,219.733 164.951,214.550 178.413 L 213.400 181.400 213.400 205.800 L 213.400 230.200 214.500 233.307 C 216.923 240.156,225.216 248.400,229.680 248.400 C 229.988 248.400,230.411 248.543,230.620 248.718 C 232.807 250.551,247.544 252.358,254.678 251.668 C 257.275 251.417,260.300 251.137,261.400 251.045 C 264.423 250.793,269.624 250.039,271.200 249.624 C 280.411 247.199,282.850 246.340,287.919 243.734 C 290.413 242.452,291.600 242.360,291.600 243.448 C 291.600 243.758,291.771 244.323,291.980 244.705 C 292.188 245.087,292.881 246.570,293.519 248.000 C 294.158 249.430,294.961 251.230,295.305 252.000 C 295.649 252.770,296.462 254.570,297.112 256.000 C 297.762 257.430,298.699 259.500,299.194 260.600 C 299.690 261.700,300.433 263.309,300.847 264.175 C 301.261 265.041,301.600 265.793,301.600 265.846 C 301.600 265.899,300.565 266.565,299.300 267.327 C 294.300 270.336,289.147 272.676,283.794 274.366 C 277.857 276.240,277.679 276.287,274.000 276.938 C 272.130 277.269,269.250 277.778,267.600 278.070 C 263.421 278.808,236.219 278.813,232.000 278.076 C 205.894 273.516,190.707 263.008,183.619 244.600 C 182.513 241.729,181.725 238.323,180.979 233.200 C 180.318 228.664,180.148 182.144,180.780 178.931 C 180.989 177.869,181.371 175.920,181.630 174.600 C 184.462 160.141,195.065 147.378,210.400 139.971 C 213.576 138.437,215.587 137.600,216.098 137.600 C 216.396 137.600,216.811 137.452,217.020 137.271 C 217.229 137.090,218.480 136.617,219.800 136.221 C 221.120 135.825,222.513 135.343,222.895 135.150 C 223.277 134.958,223.963 134.800,224.421 134.800 C 224.878 134.800,225.561 134.635,225.938 134.433 C 226.591 134.084,228.244 133.787,236.000 132.624 C 240.839 131.898,256.614 131.892,263.000 132.612 " stroke="none" fill="#333333" fill-rule="evenodd"></path><path id="path2" d="M236.000 132.624 C 228.244 133.787,226.591 134.084,225.938 134.433 C 225.561 134.635,224.878 134.800,224.421 134.800 C 223.963 134.800,223.277 134.958,222.895 135.150 C 222.513 135.343,221.120 135.825,219.800 136.221 C 218.480 136.617,217.229 137.090,217.020 137.271 C 216.811 137.452,216.396 137.600,216.098 137.600 C 215.587 137.600,213.576 138.437,210.400 139.971 C 195.065 147.378,184.462 160.141,181.630 174.600 C 181.371 175.920,180.989 177.869,180.780 178.931 C 180.148 182.144,180.318 228.664,180.979 233.200 C 181.725 238.323,182.513 241.729,183.619 244.600 C 190.707 263.008,205.894 273.516,232.000 278.076 C 236.219 278.813,263.421 278.808,267.600 278.070 C 278.748 276.101,277.124 276.472,283.794 274.366 C 289.147 272.676,294.300 270.336,299.300 267.327 C 300.565 266.565,301.600 265.899,301.600 265.846 C 301.600 265.793,301.261 265.041,300.847 264.175 C 300.433 263.309,299.690 261.700,299.194 260.600 C 298.699 259.500,297.762 257.430,297.112 256.000 C 296.462 254.570,295.649 252.770,295.305 252.000 C 294.961 251.230,294.158 249.430,293.519 248.000 C 292.881 246.570,292.188 245.087,291.980 244.705 C 291.771 244.323,291.600 243.758,291.600 243.448 C 291.600 242.360,290.413 242.452,287.919 243.734 C 282.850 246.340,280.411 247.199,271.200 249.624 C 269.624 250.039,264.423 250.793,261.400 251.045 C 260.300 251.137,257.275 251.417,254.678 251.668 C 247.544 252.358,232.807 250.551,230.620 248.718 C 230.411 248.543,229.988 248.400,229.680 248.400 C 225.216 248.400,216.923 240.156,214.500 233.307 L 213.400 230.200 213.400 205.800 L 213.400 181.400 214.550 178.413 C 219.733 164.951,234.954 158.044,255.991 159.607 C 269.434 160.606,278.197 162.853,288.100 167.840 C 289.586 168.588,290.958 169.200,291.151 169.200 C 291.343 169.200,293.527 165.195,296.005 160.300 C 298.482 155.405,301.024 150.465,301.654 149.322 C 303.382 146.188,303.322 146.077,298.400 143.370 C 297.630 142.947,296.910 142.510,296.800 142.400 C 296.119 141.719,288.595 138.397,284.800 137.103 C 277.111 134.479,274.162 133.872,263.000 132.612 C 256.614 131.892,240.839 131.898,236.000 132.624 " stroke="none" fill="#ffffff" fill-rule="evenodd"></path></g></svg>