<svg id="svg" xmlns="http://www.w3.org/2000/svg" xmlns:xlink="http://www.w3.org/1999/xlink" width="400" height="429.75206611570246" viewBox="0, 0, 400,429.75206611570246"><g id="svgg"><path id="path0" d="M0.000 214.800 L 0.000 429.600 200.000 429.600 L 400.000 429.600 400.000 214.800 L 400.000 0.000 200.000 0.000 L 0.000 0.000 0.000 214.800 M311.210 44.819 C 317.741 45.627,322.791 47.673,327.327 51.349 C 328.467 52.274,329.813 53.315,330.317 53.665 C 333.525 55.885,337.529 62.120,339.406 67.818 C 341.052 72.815,341.142 81.210,341.068 224.200 L 341.000 355.000 339.892 358.760 C 336.534 370.150,326.612 379.333,314.984 381.812 C 311.463 382.562,39.790 383.039,32.400 382.308 C 17.552 380.838,5.770 369.770,3.142 354.823 C 2.453 350.902,2.708 78.348,3.406 73.200 C 5.419 58.343,17.246 46.698,32.200 44.848 C 36.400 44.328,307.015 44.300,311.210 44.819 M94.200 141.044 C 63.725 145.359,43.865 160.029,38.480 182.200 C 37.030 188.172,37.573 241.575,39.140 247.000 C 47.959 277.537,83.732 292.829,128.400 285.156 C 141.218 282.954,163.720 274.439,168.000 270.170 C 168.520 269.652,168.616 265.664,168.723 240.199 L 168.846 210.827 167.923 210.603 C 167.415 210.480,153.500 210.429,137.000 210.490 L 107.000 210.600 106.891 217.709 C 106.800 223.608,106.880 224.856,107.359 225.040 C 107.677 225.161,117.302 225.292,128.748 225.331 C 143.308 225.379,149.692 225.533,150.001 225.842 C 150.307 226.147,150.472 231.455,150.536 243.019 C 150.646 262.851,151.409 260.547,143.596 263.955 C 104.534 280.994,62.672 269.614,56.635 240.317 C 55.582 235.207,55.709 192.467,56.792 187.200 C 63.064 156.711,115.568 146.562,153.696 168.468 C 156.561 170.114,156.401 170.243,160.600 162.838 C 164.100 156.663,164.136 156.291,161.400 154.493 C 153.014 148.983,141.142 144.784,126.000 141.973 C 121.585 141.153,98.244 140.471,94.200 141.044 " stroke="none" fill="#ffffff" fill-rule="evenodd"></path><path id="path1" d="M32.200 44.848 C 17.246 46.698,5.419 58.343,3.406 73.200 C 2.708 78.348,2.453 350.902,3.142 354.823 C 5.770 369.770,17.552 380.838,32.400 382.308 C 39.790 383.039,311.463 382.562,314.984 381.812 C 326.612 379.333,336.534 370.150,339.892 358.760 L 341.000 355.000 341.068 224.200 C 341.142 81.210,341.052 72.815,339.406 67.818 C 337.529 62.120,333.525 55.885,330.317 53.665 C 329.813 53.315,328.467 52.274,327.327 51.349 C 322.791 47.673,317.741 45.627,311.210 44.819 C 307.015 44.300,36.400 44.328,32.200 44.848 M264.600 141.167 C 273.777 142.357,277.618 143.170,283.800 145.230 C 291.025 147.638,301.361 152.944,302.529 154.844 C 302.947 155.523,293.133 175.349,291.576 176.971 C 290.847 177.730,290.768 177.710,286.440 175.655 C 256.511 161.443,221.013 167.360,214.360 187.669 L 213.400 190.600 213.400 214.600 C 213.400 243.307,213.586 244.371,219.724 250.738 C 231.330 262.776,265.402 263.804,287.250 252.775 C 291.074 250.844,290.678 250.410,296.049 262.400 C 302.111 275.932,302.326 274.434,293.704 278.767 C 274.295 288.520,239.336 290.367,216.797 282.831 C 196.995 276.211,184.907 263.096,181.374 244.400 C 180.343 238.946,180.008 193.262,180.950 186.542 C 184.358 162.212,205.314 144.994,236.400 140.983 C 241.018 140.387,259.517 140.507,264.600 141.167 M126.000 141.973 C 141.142 144.784,153.014 148.983,161.400 154.493 C 164.136 156.291,164.100 156.663,160.600 162.838 C 156.401 170.243,156.561 170.114,153.696 168.468 C 115.568 146.562,63.064 156.711,56.792 187.200 C 55.709 192.467,55.582 235.207,56.635 240.317 C 62.672 269.614,104.534 280.994,143.596 263.955 C 151.409 260.547,150.646 262.851,150.536 243.019 C 150.472 231.455,150.307 226.147,150.001 225.842 C 149.692 225.533,143.308 225.379,128.748 225.331 C 117.302 225.292,107.677 225.161,107.359 225.040 C 106.880 224.856,106.800 223.608,106.891 217.709 L 107.000 210.600 137.000 210.490 C 153.500 210.429,167.415 210.480,167.923 210.603 L 168.846 210.827 168.723 240.199 C 168.616 265.664,168.520 269.652,168.000 270.170 C 163.720 274.439,141.218 282.954,128.400 285.156 C 83.732 292.829,47.959 277.537,39.140 247.000 C 37.573 241.575,37.030 188.172,38.480 182.200 C 43.865 160.029,63.725 145.359,94.200 141.044 C 98.244 140.471,121.585 141.153,126.000 141.973 " stroke="none" fill="#333333" fill-rule="evenodd"></path><path id="path2" d="M236.400 140.983 C 205.314 144.994,184.358 162.212,180.950 186.542 C 180.008 193.262,180.343 238.946,181.374 244.400 C 184.387 260.344,193.205 271.768,208.378 279.389 C 230.341 290.419,271.106 290.122,293.704 278.767 C 302.326 274.434,302.111 275.932,296.049 262.400 C 290.678 250.410,291.074 250.844,287.250 252.775 C 265.402 263.804,231.330 262.776,219.724 250.738 C 213.586 244.371,213.400 243.307,213.400 214.600 L 213.400 190.600 214.360 187.669 C 221.013 167.360,256.511 161.443,286.440 175.655 C 290.768 177.710,290.847 177.730,291.576 176.971 C 293.133 175.349,302.947 155.523,302.529 154.844 C 301.361 152.944,291.025 147.638,283.800 145.230 C 277.618 143.170,273.777 142.357,264.600 141.167 C 259.517 140.507,241.018 140.387,236.400 140.983 " stroke="none" fill="#ffffff" fill-rule="evenodd"></path></g></svg>